<svg width="1451" height="216" viewBox="0 0 1451 216" fill="none" xmlns="http://www.w3.org/2000/svg">
<path opacity="0.8" d="M5.24409e-05 39.5215V2.87433H172.663V39.5215H108.299V213.108H64.3636V39.5215H5.24409e-05ZM238.32 2.87433V213.108H193.871V2.87433H238.32ZM453.157 76.4766H408.195C407.374 70.6596 405.697 65.4927 403.165 60.976C400.633 56.3908 397.382 52.49 393.413 49.2735C389.444 46.0571 384.859 43.5934 379.657 41.8825C374.525 40.1716 368.947 39.3162 362.925 39.3162C352.044 39.3162 342.565 42.0194 334.49 47.4258C326.415 52.7637 320.153 60.5654 315.705 70.8307C311.256 81.0276 309.032 93.4144 309.032 107.991C309.032 122.978 311.256 135.571 315.705 145.767C320.221 155.964 326.517 163.663 334.593 168.864C342.668 174.066 352.01 176.666 362.617 176.666C368.571 176.666 374.08 175.879 379.144 174.305C384.277 172.731 388.828 170.438 392.797 167.427C396.766 164.348 400.051 160.618 402.652 156.238C405.321 151.858 407.168 146.862 408.195 141.251L453.157 141.456C451.994 151.105 449.085 160.413 444.432 169.378C439.846 178.274 433.653 186.247 425.851 193.296C418.118 200.276 408.879 205.82 398.135 209.926C387.459 213.963 375.38 215.982 361.898 215.982C343.147 215.982 326.38 211.739 311.598 203.253C296.885 194.767 285.251 182.483 276.696 166.401C268.21 150.318 263.967 130.849 263.967 107.991C263.967 85.0653 268.279 65.5612 276.902 49.4789C285.525 33.3965 297.227 21.1466 312.009 12.729C326.791 4.24304 343.421 3.91583e-05 361.898 3.91583e-05C374.08 3.91583e-05 385.372 1.71092 395.774 5.1327C406.245 8.55447 415.518 13.5503 423.593 20.12C431.668 26.6214 438.238 34.5941 443.302 44.0382C448.435 53.4823 451.72 64.2951 453.157 76.4766ZM477.804 213.108V2.87433H522.253V95.5701H525.025L600.68 2.87433H653.957L575.94 97.0072L654.881 213.108H601.706L544.118 126.674L522.253 153.364V213.108H477.804ZM669.878 213.108V2.87433H714.327V176.461H804.457V213.108H669.878ZM826.666 213.108V2.87433H968.327V39.5215H871.114V89.6162H961.038V126.263H871.114V176.461H968.737V213.108H826.666ZM1249.31 107.991C1249.31 130.917 1244.96 150.421 1236.27 166.503C1227.65 182.586 1215.88 194.87 1200.96 203.356C1186.11 211.773 1169.41 215.982 1150.86 215.982C1132.18 215.982 1115.42 211.739 1100.56 203.253C1085.71 194.767 1073.98 182.483 1065.35 166.401C1056.73 150.318 1052.42 130.849 1052.42 107.991C1052.42 85.0653 1056.73 65.5612 1065.35 49.4789C1073.98 33.3965 1085.71 21.1466 1100.56 12.729C1115.42 4.24304 1132.18 3.91583e-05 1150.86 3.91583e-05C1169.41 3.91583e-05 1186.11 4.24304 1200.96 12.729C1215.88 21.1466 1227.65 33.3965 1236.27 49.4789C1244.96 65.5612 1249.31 85.0653 1249.31 107.991ZM1204.24 107.991C1204.24 93.1406 1202.02 80.617 1197.57 70.4201C1193.19 60.2232 1187 52.49 1178.99 47.2205C1170.98 41.951 1161.61 39.3162 1150.86 39.3162C1140.12 39.3162 1130.74 41.951 1122.74 47.2205C1114.73 52.49 1108.5 60.2232 1104.05 70.4201C1099.67 80.617 1097.48 93.1406 1097.48 107.991C1097.48 122.842 1099.67 135.365 1104.05 145.562C1108.5 155.759 1114.73 163.492 1122.74 168.762C1130.74 174.031 1140.12 176.666 1150.86 176.666C1161.61 176.666 1170.98 174.031 1178.99 168.762C1187 163.492 1193.19 155.759 1197.57 145.562C1202.02 135.365 1204.24 122.842 1204.24 107.991ZM1450.85 2.87433V213.108H1412.46L1321 80.788H1319.46V213.108H1275.01V2.87433H1314.02L1404.76 135.092H1406.61V2.87433H1450.85Z" fill="white"/>
</svg>
